<mxfile host="app.diagrams.net" modified="2024-02-09T20:25:29.429Z" agent="Mozilla/5.0 (Windows NT 10.0; Win64; x64) AppleWebKit/537.36 (KHTML, like Gecko) Chrome/120.0.0.0 Safari/537.36" etag="En4R_jpoZjz2jLjKIU2Q" version="23.1.1" type="github">
  <diagram name="第 1 页" id="_rum_Qx3C-pl_39SnO8p">
    <mxGraphModel dx="2074" dy="3478" grid="1" gridSize="10" guides="1" tooltips="1" connect="1" arrows="1" fold="1" page="1" pageScale="1" pageWidth="827" pageHeight="1169" math="0" shadow="0">
      <root>
        <mxCell id="0" />
        <mxCell id="1" parent="0" />
        <mxCell id="W63FELmV4LjoxZOhi6UZ-23" value="" style="edgeStyle=orthogonalEdgeStyle;rounded=0;orthogonalLoop=1;jettySize=auto;html=1;" edge="1" parent="1" source="W63FELmV4LjoxZOhi6UZ-2" target="W63FELmV4LjoxZOhi6UZ-7">
          <mxGeometry relative="1" as="geometry" />
        </mxCell>
        <mxCell id="W63FELmV4LjoxZOhi6UZ-2" value="automatically fill in a letter for a random black spot" style="rounded=1;whiteSpace=wrap;html=1;shadow=0;comic=0;labelBackgroundColor=none;strokeWidth=1;fontFamily=Verdana;fontSize=12;align=center;arcSize=50;" vertex="1" parent="1">
          <mxGeometry x="291.11" y="-1810" width="142.5" height="50" as="geometry" />
        </mxCell>
        <mxCell id="W63FELmV4LjoxZOhi6UZ-3" value="" style="edgeStyle=orthogonalEdgeStyle;rounded=0;orthogonalLoop=1;jettySize=auto;html=1;entryX=0.5;entryY=0;entryDx=0;entryDy=0;" edge="1" parent="1" source="W63FELmV4LjoxZOhi6UZ-4" target="W63FELmV4LjoxZOhi6UZ-9">
          <mxGeometry relative="1" as="geometry">
            <mxPoint x="342.25" y="-1930" as="targetPoint" />
          </mxGeometry>
        </mxCell>
        <mxCell id="W63FELmV4LjoxZOhi6UZ-4" value="" style="ellipse;whiteSpace=wrap;html=1;rounded=0;shadow=0;comic=0;labelBackgroundColor=none;strokeWidth=1;fillColor=#000000;fontFamily=Verdana;fontSize=12;align=center;" vertex="1" parent="1">
          <mxGeometry x="342.37" y="-2180" width="40" height="40" as="geometry" />
        </mxCell>
        <mxCell id="W63FELmV4LjoxZOhi6UZ-7" value="" style="shape=mxgraph.bpmn.shape;html=1;verticalLabelPosition=bottom;labelBackgroundColor=#ffffff;verticalAlign=top;perimeter=ellipsePerimeter;outline=end;symbol=terminate;rounded=0;shadow=0;comic=0;strokeWidth=1;fontFamily=Verdana;fontSize=12;align=center;" vertex="1" parent="1">
          <mxGeometry x="342.38" y="-1720" width="40" height="40" as="geometry" />
        </mxCell>
        <mxCell id="W63FELmV4LjoxZOhi6UZ-17" value="" style="edgeStyle=orthogonalEdgeStyle;rounded=0;orthogonalLoop=1;jettySize=auto;html=1;" edge="1" parent="1" source="W63FELmV4LjoxZOhi6UZ-9" target="W63FELmV4LjoxZOhi6UZ-16">
          <mxGeometry relative="1" as="geometry" />
        </mxCell>
        <mxCell id="W63FELmV4LjoxZOhi6UZ-9" value="play a puzzle" style="rounded=1;whiteSpace=wrap;html=1;shadow=0;comic=0;labelBackgroundColor=none;strokeWidth=1;fontFamily=Verdana;fontSize=12;align=center;arcSize=50;" vertex="1" parent="1">
          <mxGeometry x="284.75" y="-2110" width="155.25" height="60" as="geometry" />
        </mxCell>
        <mxCell id="W63FELmV4LjoxZOhi6UZ-10" value="" style="edgeStyle=orthogonalEdgeStyle;rounded=0;orthogonalLoop=1;jettySize=auto;html=1;" edge="1" parent="1" target="W63FELmV4LjoxZOhi6UZ-2">
          <mxGeometry relative="1" as="geometry">
            <mxPoint x="362" y="-1890" as="sourcePoint" />
            <Array as="points">
              <mxPoint x="363" y="-1890" />
              <mxPoint x="363" y="-1850" />
              <mxPoint x="362" y="-1850" />
            </Array>
          </mxGeometry>
        </mxCell>
        <mxCell id="W63FELmV4LjoxZOhi6UZ-22" value="can use hints" style="edgeLabel;html=1;align=center;verticalAlign=middle;resizable=0;points=[];" vertex="1" connectable="0" parent="W63FELmV4LjoxZOhi6UZ-10">
          <mxGeometry x="0.3171" y="2" relative="1" as="geometry">
            <mxPoint x="38" as="offset" />
          </mxGeometry>
        </mxCell>
        <mxCell id="W63FELmV4LjoxZOhi6UZ-20" value="" style="edgeStyle=orthogonalEdgeStyle;rounded=0;orthogonalLoop=1;jettySize=auto;html=1;entryX=1;entryY=0.5;entryDx=0;entryDy=0;" edge="1" parent="1" source="W63FELmV4LjoxZOhi6UZ-13" target="W63FELmV4LjoxZOhi6UZ-9">
          <mxGeometry relative="1" as="geometry">
            <mxPoint x="482.3800000000001" y="-1890" as="targetPoint" />
            <Array as="points">
              <mxPoint x="670" y="-1890" />
              <mxPoint x="670" y="-2080" />
            </Array>
          </mxGeometry>
        </mxCell>
        <mxCell id="W63FELmV4LjoxZOhi6UZ-21" value="no more hints to use" style="edgeLabel;html=1;align=center;verticalAlign=middle;resizable=0;points=[];" vertex="1" connectable="0" parent="W63FELmV4LjoxZOhi6UZ-20">
          <mxGeometry x="-0.7335" y="-3" relative="1" as="geometry">
            <mxPoint y="-13" as="offset" />
          </mxGeometry>
        </mxCell>
        <mxCell id="W63FELmV4LjoxZOhi6UZ-13" value="" style="rhombus;whiteSpace=wrap;html=1;" vertex="1" parent="1">
          <mxGeometry x="322.38" y="-1930" width="80" height="80" as="geometry" />
        </mxCell>
        <mxCell id="W63FELmV4LjoxZOhi6UZ-18" value="" style="edgeStyle=orthogonalEdgeStyle;rounded=0;orthogonalLoop=1;jettySize=auto;html=1;" edge="1" parent="1" source="W63FELmV4LjoxZOhi6UZ-16" target="W63FELmV4LjoxZOhi6UZ-13">
          <mxGeometry relative="1" as="geometry" />
        </mxCell>
        <mxCell id="W63FELmV4LjoxZOhi6UZ-16" value="use a hints" style="rounded=1;whiteSpace=wrap;html=1;shadow=0;comic=0;labelBackgroundColor=none;strokeWidth=1;fontFamily=Verdana;fontSize=12;align=center;arcSize=50;" vertex="1" parent="1">
          <mxGeometry x="284.74" y="-2020" width="155.25" height="60" as="geometry" />
        </mxCell>
      </root>
    </mxGraphModel>
  </diagram>
</mxfile>
